# xmcd
#
# Track frame offsets: 
#        150
#        13970
#        29990
#        42317
#        55872
#        64935
#        78172
#        90442
#        106645
#        124570
#        137877
#        149530
#        165772
#        181335
#        202077
#
# Disc length: 2892 seconds
#
# Revision: 1
# Processed by: cddbd v1.5.1PL0 Copyright (c) Steve Scherf et al.
# Submitted via: ExactAudioCopy v0.95a5
#
DISCID=cd0b4a0f
DTITLE=Groundhogs - Muddy Waters Songbook
DYEAR=1999
DGENRE=Blues
TTITLE0=Stuff You Gotta Watch
TTITLE1=She's Alright
TTITLE2=I Got A Rich Man's Woman
TTITLE3=Can't Call Her Sugar
TTITLE4=Forty Days And Forty Nights
TTITLE5=Mean Ole Frisco
TTITLE6=I'm Ready
TTITLE7=Young Fashioned Ways
TTITLE8=Hoochie Coochie Man
TTITLE9=I Feel So Good
TTITLE10=Mean Red Spider
TTITLE11=Tiger In Your Tank
TTITLE12=Mannish Boy
TTITLE13=Got My Mojo Workin'
TTITLE14=Country Blues
EXTD=YEAR: 1999
EXTT0=
EXTT1=
EXTT2=
EXTT3=
EXTT4=
EXTT5=
EXTT6=
EXTT7=
EXTT8=
EXTT9=
EXTT10=
EXTT11=
EXTT12=
EXTT13=
EXTT14=
PLAYORDER=
